<svg width="62" height="61" viewBox="0 0 62 61" fill="none" xmlns="http://www.w3.org/2000/svg">
<g clip-path="url(#clip0)">
<path d="M23.2543 11.7318C23.2543 14.7448 22.0574 17.6343 19.9269 19.7647C17.7965 21.8952 14.907 23.0921 11.894 23.0921C8.88112 23.0921 5.9916 21.8952 3.86114 19.7647C1.73069 17.6343 0.533813 14.7448 0.533813 11.7318C0.533813 8.71892 1.73069 5.82941 3.86114 3.69895C5.9916 1.5685 8.88112 0.37162 11.894 0.37162C14.907 0.37162 17.7965 1.5685 19.9269 3.69895C22.0574 5.82941 23.2543 8.71892 23.2543 11.7318V11.7318ZM4.32055 11.7318C4.32055 13.7405 5.11847 15.6668 6.53877 17.0871C7.95908 18.5074 9.88542 19.3053 11.894 19.3053C13.9026 19.3053 15.829 18.5074 17.2493 17.0871C18.6696 15.6668 19.4675 13.7405 19.4675 11.7318C19.4675 9.72323 18.6696 7.79688 17.2493 6.37658C15.829 4.95628 13.9026 4.15836 11.894 4.15836C9.88542 4.15836 7.95908 4.95628 6.53877 6.37658C5.11847 7.79688 4.32055 9.72323 4.32055 11.7318V11.7318Z" fill="#A6A6A6"/>
<path d="M34.6145 23.0921H36.5078C38.3448 23.0918 40.1192 23.7593 41.5006 24.97C42.882 26.1808 43.7763 27.8523 44.0169 29.6734L55.7937 24.4401C56.3702 24.1833 57.0016 24.0746 57.6308 24.1239C58.2599 24.1732 58.8668 24.379 59.3962 24.7225C59.9256 25.066 60.3607 25.5364 60.6621 26.0909C60.9634 26.6454 61.1214 27.2664 61.1217 27.8974V56.1541C61.1211 56.7847 60.9631 57.4051 60.6619 57.9592C60.3608 58.5132 59.9261 58.9833 59.3972 59.3267C58.8683 59.6701 58.2621 59.876 57.6335 59.9257C57.0049 59.9754 56.3738 59.8674 55.7975 59.6114L44.0169 54.3781C43.7763 56.1992 42.882 57.8708 41.5006 59.0815C40.1192 60.2923 38.3448 60.9597 36.5078 60.9595H8.10729C6.09868 60.9595 4.17234 60.1615 2.75203 58.7412C1.33173 57.3209 0.533813 55.3946 0.533813 53.386V30.6655C0.533813 28.6569 1.33173 26.7306 2.75203 25.3103C4.17234 23.89 6.09868 23.0921 8.10729 23.0921H34.6145ZM57.3349 56.1503V27.9012L44.0813 33.7896V50.2619L57.3349 56.1541V56.1503ZM4.32055 30.6655V53.386C4.32055 54.3903 4.71951 55.3535 5.42966 56.0636C6.13981 56.7738 7.10299 57.1727 8.10729 57.1727H36.5078C37.5121 57.1727 38.4753 56.7738 39.1855 56.0636C39.8956 55.3535 40.2946 54.3903 40.2946 53.386V30.6655C40.2946 29.6612 39.8956 28.6981 39.1855 27.9879C38.4753 27.2778 37.5121 26.8788 36.5078 26.8788H8.10729C7.10299 26.8788 6.13981 27.2778 5.42966 27.9879C4.71951 28.6981 4.32055 29.6612 4.32055 30.6655V30.6655Z" fill="#A6A6A6"/>
<path d="M34.6145 23.0921C37.6274 23.0921 40.5169 21.8952 42.6474 19.7647C44.7778 17.6343 45.9747 14.7448 45.9747 11.7318C45.9747 8.71892 44.7778 5.82941 42.6474 3.69895C40.5169 1.5685 37.6274 0.37162 34.6145 0.37162C31.6016 0.37162 28.7121 1.5685 26.5816 3.69895C24.4511 5.82941 23.2543 8.71892 23.2543 11.7318C23.2543 14.7448 24.4511 17.6343 26.5816 19.7647C28.7121 21.8952 31.6016 23.0921 34.6145 23.0921V23.0921ZM27.041 11.7318C27.041 9.72323 27.8389 7.79688 29.2592 6.37658C30.6795 4.95628 32.6059 4.15836 34.6145 4.15836C36.6231 4.15836 38.5494 4.95628 39.9698 6.37658C41.3901 7.79688 42.188 9.72323 42.188 11.7318C42.188 13.7405 41.3901 15.6668 39.9698 17.0871C38.5494 18.5074 36.6231 19.3053 34.6145 19.3053C32.6059 19.3053 30.6795 18.5074 29.2592 17.0871C27.8389 15.6668 27.041 13.7405 27.041 11.7318V11.7318Z" fill="#A6A6A6"/>
</g>
<defs>
<clipPath id="clip0">
<rect width="60.5878" height="60.5878" fill="white" transform="translate(0.533813 0.37162)"/>
</clipPath>
</defs>
</svg>
