<svg width="24" height="24" viewBox="0 0 24 24" fill="none" xmlns="http://www.w3.org/2000/svg">
<path d="M13.6701 22.0001H13.6101C13.39 21.9868 13.1804 21.9012 13.0141 21.7565C12.8477 21.6118 12.7338 21.4162 12.6901 21.2001L11.0001 13.0001L2.80007 11.3101C2.58354 11.2671 2.38733 11.1536 2.24203 10.9874C2.09672 10.8212 2.0105 10.6116 1.9968 10.3913C1.9831 10.1709 2.0427 9.95227 2.16629 9.76935C2.28989 9.58643 2.47054 9.44956 2.68007 9.38006L18.6801 4.05006C18.8597 3.9759 19.057 3.95567 19.2479 3.99185C19.4388 4.02802 19.615 4.11903 19.7551 4.25374C19.8951 4.38846 19.9928 4.56105 20.0363 4.75042C20.0798 4.93979 20.0672 5.13773 20.0001 5.32006L14.6701 21.3201C14.6005 21.527 14.4651 21.7056 14.2845 21.8283C14.1039 21.9511 13.8881 22.0114 13.6701 22.0001ZM6.87007 10.1001L12.0601 11.1601C12.2541 11.1975 12.4327 11.2915 12.5733 11.4304C12.7139 11.5692 12.8102 11.7465 12.8501 11.9401L13.9001 17.1301L17.4201 6.58006L6.87007 10.1001Z" fill="white"/>
</svg>
