<svg width="24" height="24" viewBox="0 0 24 24" fill="none" xmlns="http://www.w3.org/2000/svg">
<path d="M21 5.99997H16V4.32997C15.9765 3.68979 15.7002 3.08503 15.2316 2.64827C14.7629 2.2115 14.1402 1.97837 13.5 1.99997H10.5C9.85975 1.97837 9.23706 2.2115 8.76843 2.64827C8.2998 3.08503 8.02346 3.68979 8 4.32997V5.99997H3C2.73478 5.99997 2.48043 6.10533 2.29289 6.29287C2.10536 6.4804 2 6.73476 2 6.99997C2 7.26519 2.10536 7.51954 2.29289 7.70708C2.48043 7.89462 2.73478 7.99997 3 7.99997H4V19C4 19.7956 4.31607 20.5587 4.87868 21.1213C5.44129 21.6839 6.20435 22 7 22H17C17.7956 22 18.5587 21.6839 19.1213 21.1213C19.6839 20.5587 20 19.7956 20 19V7.99997H21C21.2652 7.99997 21.5196 7.89462 21.7071 7.70708C21.8946 7.51954 22 7.26519 22 6.99997C22 6.73476 21.8946 6.4804 21.7071 6.29287C21.5196 6.10533 21.2652 5.99997 21 5.99997ZM10 4.32997C10 4.16997 10.21 3.99997 10.5 3.99997H13.5C13.79 3.99997 14 4.16997 14 4.32997V5.99997H10V4.32997ZM18 19C18 19.2652 17.8946 19.5195 17.7071 19.7071C17.5196 19.8946 17.2652 20 17 20H7C6.73478 20 6.48043 19.8946 6.29289 19.7071C6.10536 19.5195 6 19.2652 6 19V7.99997H18V19Z" fill="white"/>
</svg>
