<svg width="24" height="24" viewBox="0 0 24 24" fill="none" xmlns="http://www.w3.org/2000/svg">
<path d="M21 12C21 11.7348 20.8947 11.4805 20.7071 11.2929C20.5196 11.1054 20.2652 11 20 11C19.7348 11 19.4805 11.1054 19.2929 11.2929C19.1054 11.4805 19 11.7348 19 12V14.3L14.76 9.30003C14.6069 9.1211 14.3956 9.00193 14.1633 8.96352C13.931 8.9251 13.6926 8.9699 13.49 9.09003L9.22003 11.7L4.77003 6.36003C4.68598 6.25891 4.58284 6.17534 4.4665 6.11408C4.35015 6.05282 4.22288 6.01508 4.09195 6.00301C3.96102 5.99094 3.829 6.00477 3.70341 6.04372C3.57783 6.08268 3.46115 6.14598 3.36003 6.23003C3.25891 6.31407 3.17534 6.41721 3.11408 6.53356C3.05282 6.6499 3.01508 6.77717 3.00301 6.90811C2.99094 7.03904 3.00477 7.17106 3.04372 7.29665C3.08268 7.42223 3.14598 7.53891 3.23003 7.64003L8.23003 13.64C8.38227 13.8231 8.59482 13.9458 8.82945 13.9861C9.06409 14.0264 9.30541 13.9817 9.51003 13.86L13.79 11.29L17.79 16H15C14.7348 16 14.4805 16.1054 14.2929 16.2929C14.1054 16.4805 14 16.7348 14 17C14 17.2652 14.1054 17.5196 14.2929 17.7071C14.4805 17.8947 14.7348 18 15 18H20C20.1231 17.997 20.2448 17.9733 20.36 17.93L20.5 17.85C20.5522 17.8237 20.6023 17.7937 20.65 17.76C20.7048 17.7106 20.752 17.6533 20.79 17.59C20.8235 17.5457 20.8536 17.4989 20.88 17.45C20.9045 17.396 20.9213 17.3387 20.93 17.28C20.9706 17.1919 20.9943 17.0969 21 17V12Z" fill="white"/>
</svg>
