<svg width="67" height="30" viewBox="0 0 67 30" fill="none" xmlns="http://www.w3.org/2000/svg">
<rect width="67" height="30" rx="4" fill="#F25C05"/>
<path fill-rule="evenodd" clip-rule="evenodd" d="M28 20.5V14H29V20.5C29 20.6326 29.0527 20.7598 29.1464 20.8536C29.2402 20.9473 29.3674 21 29.5 21H38.5C38.6326 21 38.7598 20.9473 38.8536 20.8536C38.9473 20.7598 39 20.6326 39 20.5V14H40V20.5C40 20.8978 39.842 21.2794 39.5607 21.5607C39.2794 21.842 38.8978 22 38.5 22H29.5C29.1022 22 28.7206 21.842 28.4393 21.5607C28.158 21.2794 28 20.8978 28 20.5V20.5ZM39 9.5V13L37 11V9.5C37 9.36739 37.0527 9.24021 37.1464 9.14645C37.2402 9.05268 37.3674 9 37.5 9H38.5C38.6326 9 38.7598 9.05268 38.8536 9.14645C38.9473 9.24021 39 9.36739 39 9.5Z" fill="#F7F7F7"/>
<path fill-rule="evenodd" clip-rule="evenodd" d="M33.293 8.5C33.4805 8.31253 33.7349 8.20721 34 8.20721C34.2652 8.20721 34.5195 8.31253 34.707 8.5L41.354 15.146C41.4479 15.2399 41.5007 15.3672 41.5007 15.5C41.5007 15.6328 41.4479 15.7601 41.354 15.854C41.2601 15.9479 41.1328 16.0006 41 16.0006C40.8672 16.0006 40.7399 15.9479 40.646 15.854L34 9.207L27.354 15.854C27.2601 15.9479 27.1328 16.0006 27 16.0006C26.8672 16.0006 26.7399 15.9479 26.646 15.854C26.5521 15.7601 26.4994 15.6328 26.4994 15.5C26.4994 15.3672 26.5521 15.2399 26.646 15.146L33.293 8.5Z" fill="#F7F7F7"/>
</svg>
