<svg width="100" height="15" viewBox="0 0 100 15" fill="none" xmlns="http://www.w3.org/2000/svg">
<path d="M14.264 0.499999V14H13.67V1.364L7.298 14.252L0.962 1.202V14H0.368V0.499999H1.214L7.298 13.028L13.436 0.499999H14.264ZM23.5476 14.36C22.2876 14.36 21.1176 14.03 20.0376 13.37C18.9576 12.71 18.0996 11.834 17.4636 10.742C16.8396 9.638 16.5276 8.456 16.5276 7.196C16.5276 5.948 16.8456 4.784 17.4816 3.704C18.1176 2.612 18.9756 1.748 20.0556 1.112C21.1356 0.463999 22.3056 0.139999 23.5656 0.139999C24.8376 0.139999 26.0076 0.457999 27.0756 1.094C28.1436 1.73 28.9896 2.594 29.6136 3.686C30.2496 4.766 30.5676 5.936 30.5676 7.196C30.5676 8.492 30.2496 9.692 29.6136 10.796C28.9896 11.888 28.1376 12.758 27.0576 13.406C25.9896 14.042 24.8196 14.36 23.5476 14.36ZM23.5476 13.838C24.6996 13.838 25.7676 13.544 26.7516 12.956C27.7356 12.356 28.5156 11.552 29.0916 10.544C29.6796 9.524 29.9736 8.42 29.9736 7.232C29.9736 6.056 29.6856 4.964 29.1096 3.956C28.5336 2.948 27.7536 2.15 26.7696 1.562C25.7856 0.961999 24.7176 0.661999 23.5656 0.661999C22.4016 0.661999 21.3276 0.961999 20.3436 1.562C19.3596 2.15 18.5736 2.948 17.9856 3.956C17.4096 4.964 17.1216 6.056 17.1216 7.232C17.1216 8.42 17.4096 9.524 17.9856 10.544C18.5736 11.552 19.3596 12.356 20.3436 12.956C21.3276 13.544 22.3956 13.838 23.5476 13.838ZM43.2171 0.499999L37.0431 14.306L30.8691 0.499999H31.5171L37.0971 12.938L42.6051 0.499999H43.2171ZM44.721 0.499999H45.315V14H44.721V0.499999ZM48.2521 0.499999H53.0941V1.022H48.8461V8.366H52.3921V8.888H48.8461V13.478H53.0941V14H48.2521V0.499999ZM57.8105 14.252C56.3105 14.252 55.1465 13.634 54.3185 12.398V11.426C54.6425 12.146 55.1105 12.71 55.7225 13.118C56.3465 13.526 57.0905 13.73 57.9545 13.73C58.5545 13.73 59.1065 13.598 59.6105 13.334C60.1265 13.07 60.5345 12.698 60.8345 12.218C61.1345 11.738 61.2845 11.186 61.2845 10.562C61.2845 9.998 61.1885 9.512 60.9965 9.104C60.8045 8.696 60.4865 8.306 60.0425 7.934C59.5985 7.55 58.9565 7.1 58.1165 6.584L57.5405 6.224C57.0125 5.9 56.5865 5.612 56.2625 5.36C55.9385 5.108 55.6565 4.814 55.4165 4.478C55.1045 4.01 54.9485 3.47 54.9485 2.858C54.9485 2.042 55.2125 1.406 55.7405 0.95C56.2685 0.494 56.9405 0.266 57.7565 0.266C58.8605 0.266 59.7365 0.674 60.3845 1.49V2.408C60.1085 1.904 59.7305 1.508 59.2505 1.22C58.7705 0.931999 58.2425 0.788 57.6665 0.788C57.0665 0.788 56.5625 0.974 56.1545 1.346C55.7465 1.718 55.5425 2.216 55.5425 2.84C55.5425 3.452 55.7285 3.98 56.1005 4.424C56.4845 4.856 57.1265 5.33 58.0265 5.846C59.1305 6.494 59.9885 7.082 60.6005 7.61C61.0325 8.006 61.3445 8.444 61.5365 8.924C61.7405 9.404 61.8425 9.938 61.8425 10.526C61.8425 11.27 61.6685 11.924 61.3205 12.488C60.9725 13.052 60.4925 13.49 59.8805 13.802C59.2685 14.102 58.5785 14.252 57.8105 14.252ZM63.3177 8.384H68.9157V8.942H63.3177V8.384ZM71.1409 0.499999H71.7349V14H71.1409V0.499999ZM84.896 14.234L82.052 7.628L79.172 14.234L73.25 0.499999H73.88L79.19 12.776L81.746 6.908L78.974 0.499999H79.586L82.106 6.314L84.644 0.499999H85.202L82.394 6.98L84.932 12.83L90.26 0.499999H90.89L84.896 14.234ZM95.1464 14.252C93.6464 14.252 92.4824 13.634 91.6544 12.398V11.426C91.9784 12.146 92.4464 12.71 93.0584 13.118C93.6824 13.526 94.4264 13.73 95.2904 13.73C95.8904 13.73 96.4424 13.598 96.9464 13.334C97.4624 13.07 97.8704 12.698 98.1704 12.218C98.4704 11.738 98.6204 11.186 98.6204 10.562C98.6204 9.998 98.5244 9.512 98.3324 9.104C98.1404 8.696 97.8224 8.306 97.3784 7.934C96.9344 7.55 96.2924 7.1 95.4524 6.584L94.8764 6.224C94.3484 5.9 93.9224 5.612 93.5984 5.36C93.2744 5.108 92.9924 4.814 92.7524 4.478C92.4404 4.01 92.2844 3.47 92.2844 2.858C92.2844 2.042 92.5484 1.406 93.0764 0.95C93.6044 0.494 94.2764 0.266 95.0924 0.266C96.1964 0.266 97.0724 0.674 97.7204 1.49V2.408C97.4444 1.904 97.0664 1.508 96.5864 1.22C96.1064 0.931999 95.5784 0.788 95.0024 0.788C94.4024 0.788 93.8984 0.974 93.4904 1.346C93.0824 1.718 92.8784 2.216 92.8784 2.84C92.8784 3.452 93.0644 3.98 93.4364 4.424C93.8204 4.856 94.4624 5.33 95.3624 5.846C96.4664 6.494 97.3244 7.082 97.9364 7.61C98.3684 8.006 98.6804 8.444 98.8724 8.924C99.0764 9.404 99.1784 9.938 99.1784 10.526C99.1784 11.27 99.0044 11.924 98.6564 12.488C98.3084 13.052 97.8284 13.49 97.2164 13.802C96.6044 14.102 95.9144 14.252 95.1464 14.252Z" fill="url(#paint0_linear)"/>
<defs>
<linearGradient id="paint0_linear" x1="124.5" y1="8" x2="-31" y2="8" gradientUnits="userSpaceOnUse">
<stop stop-color="#E7F6FF"/>
<stop offset="1" stop-color="#DBFFF4"/>
</linearGradient>
</defs>
</svg>
