<svg width="113" height="16" viewBox="0 0 113 16" fill="none" xmlns="http://www.w3.org/2000/svg">
<path d="M14.68 1.16V15H12.86V4.68L8.26 15H6.98L2.36 4.66V15H0.54V1.16H2.5L7.62 12.6L12.74 1.16H14.68ZM24.0866 15.14C22.7932 15.14 21.6132 14.84 20.5466 14.24C19.4799 13.6267 18.6332 12.78 18.0066 11.7C17.3932 10.6067 17.0866 9.38 17.0866 8.02C17.0866 6.66 17.3932 5.44 18.0066 4.36C18.6332 3.26667 19.4799 2.42 20.5466 1.82C21.6132 1.20667 22.7932 0.899999 24.0866 0.899999C25.3932 0.899999 26.5799 1.20667 27.6466 1.82C28.7132 2.42 29.5532 3.26 30.1666 4.34C30.7799 5.42 31.0866 6.64667 31.0866 8.02C31.0866 9.39333 30.7799 10.62 30.1666 11.7C29.5532 12.78 28.7132 13.6267 27.6466 14.24C26.5799 14.84 25.3932 15.14 24.0866 15.14ZM24.0866 13.56C25.0599 13.56 25.9332 13.3333 26.7066 12.88C27.4932 12.4267 28.1066 11.78 28.5466 10.94C28.9999 10.1 29.2266 9.12667 29.2266 8.02C29.2266 6.9 28.9999 5.92667 28.5466 5.1C28.1066 4.26 27.4999 3.61333 26.7266 3.16C25.9532 2.70667 25.0732 2.48 24.0866 2.48C23.0999 2.48 22.2199 2.70667 21.4466 3.16C20.6732 3.61333 20.0599 4.26 19.6066 5.1C19.1666 5.92667 18.9466 6.9 18.9466 8.02C18.9466 9.12667 19.1666 10.1 19.6066 10.94C20.0599 11.78 20.6732 12.4267 21.4466 12.88C22.2332 13.3333 23.1132 13.56 24.0866 13.56ZM45.0092 1.06L39.7492 15H37.6492L32.3892 1.06H34.3292L38.7092 13.08L43.0892 1.06H45.0092ZM48.8248 1.06V15H47.0048V1.06H48.8248ZM53.7467 2.54V7.2H58.8267V8.7H53.7467V13.5H59.4267V15H51.9267V1.04H59.4267V2.54H53.7467ZM66.6006 15.14C65.6806 15.14 64.854 14.98 64.1206 14.66C63.4006 14.3267 62.834 13.8733 62.4206 13.3C62.0073 12.7133 61.794 12.04 61.7806 11.28H63.7206C63.7873 11.9333 64.054 12.4867 64.5206 12.94C65.0006 13.38 65.694 13.6 66.6006 13.6C67.4673 13.6 68.1473 13.3867 68.6406 12.96C69.1473 12.52 69.4006 11.96 69.4006 11.28C69.4006 10.7467 69.254 10.3133 68.9606 9.98C68.6673 9.64667 68.3006 9.39333 67.8606 9.22C67.4206 9.04667 66.8273 8.86 66.0806 8.66C65.1606 8.42 64.4206 8.18 63.8606 7.94C63.314 7.7 62.8406 7.32667 62.4406 6.82C62.054 6.3 61.8606 5.60667 61.8606 4.74C61.8606 3.98 62.054 3.30667 62.4406 2.72C62.8273 2.13333 63.3673 1.68 64.0606 1.36C64.7673 1.04 65.574 0.879999 66.4806 0.879999C67.7873 0.879999 68.854 1.20667 69.6806 1.86C70.5206 2.51333 70.994 3.38 71.1006 4.46H69.1006C69.034 3.92667 68.754 3.46 68.2606 3.06C67.7673 2.64667 67.114 2.44 66.3006 2.44C65.5406 2.44 64.9206 2.64 64.4406 3.04C63.9606 3.42667 63.7206 3.97333 63.7206 4.68C63.7206 5.18667 63.8606 5.6 64.1406 5.92C64.434 6.24 64.7873 6.48667 65.2006 6.66C65.6273 6.82 66.2206 7.00667 66.9806 7.22C67.9006 7.47333 68.6406 7.72667 69.2006 7.98C69.7606 8.22 70.2406 8.6 70.6406 9.12C71.0406 9.62667 71.2406 10.32 71.2406 11.2C71.2406 11.88 71.0606 12.52 70.7006 13.12C70.3406 13.72 69.8073 14.2067 69.1006 14.58C68.394 14.9533 67.5606 15.14 66.6006 15.14ZM81.0709 1.06V15H79.2509V1.06H81.0709ZM101.693 1.06L97.6528 15H95.6128L92.3728 3.78L89.0128 15L86.9928 15.02L83.0928 1.06H85.0328L88.0728 12.88L91.4328 1.06H93.4728L96.6728 12.84L99.7328 1.06H101.693ZM108.105 15.14C107.185 15.14 106.358 14.98 105.625 14.66C104.905 14.3267 104.338 13.8733 103.925 13.3C103.511 12.7133 103.298 12.04 103.285 11.28H105.225C105.291 11.9333 105.558 12.4867 106.025 12.94C106.505 13.38 107.198 13.6 108.105 13.6C108.971 13.6 109.651 13.3867 110.145 12.96C110.651 12.52 110.905 11.96 110.905 11.28C110.905 10.7467 110.758 10.3133 110.465 9.98C110.171 9.64667 109.805 9.39333 109.365 9.22C108.925 9.04667 108.331 8.86 107.585 8.66C106.665 8.42 105.925 8.18 105.365 7.94C104.818 7.7 104.345 7.32667 103.945 6.82C103.558 6.3 103.365 5.60667 103.365 4.74C103.365 3.98 103.558 3.30667 103.945 2.72C104.331 2.13333 104.871 1.68 105.565 1.36C106.271 1.04 107.078 0.879999 107.985 0.879999C109.291 0.879999 110.358 1.20667 111.185 1.86C112.025 2.51333 112.498 3.38 112.605 4.46H110.605C110.538 3.92667 110.258 3.46 109.765 3.06C109.271 2.64667 108.618 2.44 107.805 2.44C107.045 2.44 106.425 2.64 105.945 3.04C105.465 3.42667 105.225 3.97333 105.225 4.68C105.225 5.18667 105.365 5.6 105.645 5.92C105.938 6.24 106.291 6.48667 106.705 6.66C107.131 6.82 107.725 7.00667 108.485 7.22C109.405 7.47333 110.145 7.72667 110.705 7.98C111.265 8.22 111.745 8.6 112.145 9.12C112.545 9.62667 112.745 10.32 112.745 11.2C112.745 11.88 112.565 12.52 112.205 13.12C111.845 13.72 111.311 14.2067 110.605 14.58C109.898 14.9533 109.065 15.14 108.105 15.14Z" fill="white"/>
</svg>
