<svg width="133" height="20" viewBox="0 0 133 20" fill="none" xmlns="http://www.w3.org/2000/svg">
<path d="M19.352 0.999999V19H18.56V2.152L10.064 19.336L1.616 1.936V19H0.824V0.999999H1.952L10.064 17.704L18.248 0.999999H19.352ZM31.7302 19.48C30.0502 19.48 28.4902 19.04 27.0502 18.16C25.6102 17.28 24.4662 16.112 23.6182 14.656C22.7862 13.184 22.3702 11.608 22.3702 9.928C22.3702 8.264 22.7942 6.712 23.6422 5.272C24.4902 3.816 25.6342 2.664 27.0742 1.816C28.5142 0.951999 30.0742 0.519999 31.7542 0.519999C33.4502 0.519999 35.0102 0.943999 36.4342 1.792C37.8582 2.64 38.9862 3.792 39.8182 5.248C40.6662 6.688 41.0902 8.248 41.0902 9.928C41.0902 11.656 40.6662 13.256 39.8182 14.728C38.9862 16.184 37.8502 17.344 36.4102 18.208C34.9862 19.056 33.4262 19.48 31.7302 19.48ZM31.7302 18.784C33.2662 18.784 34.6902 18.392 36.0022 17.608C37.3142 16.808 38.3542 15.736 39.1222 14.392C39.9062 13.032 40.2982 11.56 40.2982 9.976C40.2982 8.408 39.9142 6.952 39.1462 5.608C38.3782 4.264 37.3382 3.2 36.0262 2.416C34.7142 1.616 33.2902 1.216 31.7542 1.216C30.2022 1.216 28.7702 1.616 27.4582 2.416C26.1462 3.2 25.0982 4.264 24.3142 5.608C23.5462 6.952 23.1622 8.408 23.1622 9.976C23.1622 11.56 23.5462 13.032 24.3142 14.392C25.0982 15.736 26.1462 16.808 27.4582 17.608C28.7702 18.392 30.1942 18.784 31.7302 18.784ZM57.9562 0.999999L49.7242 19.408L41.4922 0.999999H42.3562L49.7962 17.584L57.1402 0.999999H57.9562ZM59.9613 0.999999H60.7533V19H59.9613V0.999999ZM64.6694 0.999999H71.1254V1.696H65.4614V11.488H70.1894V12.184H65.4614V18.304H71.1254V19H64.6694V0.999999ZM77.414 19.336C75.414 19.336 73.862 18.512 72.758 16.864V15.568C73.19 16.528 73.814 17.28 74.63 17.824C75.462 18.368 76.454 18.64 77.606 18.64C78.406 18.64 79.142 18.464 79.814 18.112C80.502 17.76 81.046 17.264 81.446 16.624C81.846 15.984 82.046 15.248 82.046 14.416C82.046 13.664 81.918 13.016 81.662 12.472C81.406 11.928 80.982 11.408 80.39 10.912C79.798 10.4 78.942 9.8 77.822 9.112L77.054 8.632C76.35 8.2 75.782 7.816 75.35 7.48C74.918 7.144 74.542 6.752 74.222 6.304C73.806 5.68 73.598 4.96 73.598 4.144C73.598 3.056 73.95 2.208 74.654 1.6C75.358 0.992 76.254 0.688 77.342 0.688C78.814 0.688 79.982 1.232 80.846 2.32V3.544C80.478 2.872 79.974 2.344 79.334 1.96C78.694 1.576 77.99 1.384 77.222 1.384C76.422 1.384 75.75 1.632 75.206 2.128C74.662 2.624 74.39 3.288 74.39 4.12C74.39 4.936 74.638 5.64 75.134 6.232C75.646 6.808 76.502 7.44 77.702 8.128C79.174 8.992 80.318 9.776 81.134 10.48C81.71 11.008 82.126 11.592 82.382 12.232C82.654 12.872 82.79 13.584 82.79 14.368C82.79 15.36 82.558 16.232 82.094 16.984C81.63 17.736 80.99 18.32 80.174 18.736C79.358 19.136 78.438 19.336 77.414 19.336ZM84.7569 11.512H92.2209V12.256H84.7569V11.512ZM95.1879 0.999999H95.9799V19H95.1879V0.999999ZM113.528 19.312L109.736 10.504L105.896 19.312L98 0.999999H98.84L105.92 17.368L109.328 9.544L105.632 0.999999H106.448L109.808 8.752L113.192 0.999999H113.936L110.192 9.64L113.576 17.44L120.68 0.999999H121.52L113.528 19.312ZM127.195 19.336C125.195 19.336 123.643 18.512 122.539 16.864V15.568C122.971 16.528 123.595 17.28 124.411 17.824C125.243 18.368 126.235 18.64 127.387 18.64C128.187 18.64 128.923 18.464 129.595 18.112C130.283 17.76 130.827 17.264 131.227 16.624C131.627 15.984 131.827 15.248 131.827 14.416C131.827 13.664 131.699 13.016 131.443 12.472C131.187 11.928 130.763 11.408 130.171 10.912C129.579 10.4 128.723 9.8 127.603 9.112L126.835 8.632C126.131 8.2 125.563 7.816 125.131 7.48C124.699 7.144 124.323 6.752 124.003 6.304C123.587 5.68 123.379 4.96 123.379 4.144C123.379 3.056 123.731 2.208 124.435 1.6C125.139 0.992 126.035 0.688 127.123 0.688C128.595 0.688 129.763 1.232 130.627 2.32V3.544C130.259 2.872 129.755 2.344 129.115 1.96C128.475 1.576 127.771 1.384 127.003 1.384C126.203 1.384 125.531 1.632 124.987 2.128C124.443 2.624 124.171 3.288 124.171 4.12C124.171 4.936 124.419 5.64 124.915 6.232C125.427 6.808 126.283 7.44 127.483 8.128C128.955 8.992 130.099 9.776 130.915 10.48C131.491 11.008 131.907 11.592 132.163 12.232C132.435 12.872 132.571 13.584 132.571 14.368C132.571 15.36 132.339 16.232 131.875 16.984C131.411 17.736 130.771 18.32 129.955 18.736C129.139 19.136 128.219 19.336 127.195 19.336Z" fill="url(#paint0_linear)"/>
<defs>
<linearGradient id="paint0_linear" x1="62.1731" y1="40.5455" x2="62.1731" y2="-31.1515" gradientUnits="userSpaceOnUse">
<stop stop-color="#72AFD3"/>
<stop offset="1" stop-color="#3CBA92"/>
</linearGradient>
</defs>
</svg>
